<svg id="b3d7192f-2a1f-4aa9-b584-3a60b5f539d3" data-name="Layer 1" xmlns="http://www.w3.org/2000/svg" width="810.19459" height="650.80939" viewBox="0 0 810.19459 650.80939"><title>gravitas</title><path d="M955.7873,611.27431c-26.89,70.21-171.93,156.48-358.93,207.61005-220.01,60.17-414.78,48.92-435.03-25.13-20.25-74.04,178.49,23.76,398.51-36.41,120.14-32.86,221.77-106.02,292.59-153.61,58.87-39.58,96.45-61.49,105.64-27.87C961.6073,586.97432,960.5373,598.87435,955.7873,611.27431Z" transform="translate(-160.40271 -42.42638)" fill="#3f3d56"/><ellipse cx="254.59729" cy="755.7326" rx="100" ry="10" opacity="0.1"/><ellipse cx="68.09729" cy="746.7326" rx="45.5" ry="10" opacity="0.1"/><path d="M641.6084,499.74394c-4,0-8.02442-.1289-11.98535-.38086L629.75,497.367c3.92383.25,7.90918.377,11.84766.377l.11816-.001v2l-.09375.001Zm12.20605-.39746-.13086-1.99609c3.9668-.25879,7.97559-.65137,11.91407-1.166l.25976,1.98243C661.876,498.68828,657.82422,499.08476,653.81445,499.34648ZM617.57715,498.2c-3.98828-.51758-8.00684-1.17285-11.94434-1.94922l.38672-1.96289c3.89453.76855,7.87012,1.417,11.81543,1.92773Zm60.22168-1.998-.38867-1.96094c3.89648-.77343,7.81933-1.68652,11.6582-2.71386l.51758,1.93164C685.70508,494.49785,681.73926,495.4207,677.79883,496.202Zm-83.95606-2.68066c-3.875-1.03223-7.77343-2.209-11.58593-3.499l.64062-1.89453c3.77149,1.27539,7.62744,2.44043,11.46,3.46094ZM701.167,489.94414l-.64258-1.89453c3.751-1.27442,7.5127-2.69238,11.18164-4.21582l.76758,1.84765C708.76367,487.22051,704.96,488.65508,701.167,489.94414Zm-130.25781-4.18555c-3.71094-1.53515-7.4248-3.21679-11.03857-4.999l.88476-1.793c3.57422,1.76172,7.24756,3.42578,10.91846,4.94434Zm152.57129-5.07617-.88672-1.793c3.5625-1.76172,7.10938-3.66211,10.542-5.64844l1.002,1.73047C730.667,476.98027,727.082,478.90215,723.48047,480.68242Zm-174.293-5.63574c-3.481-2.01074-6.94092-4.16406-10.28369-6.39942l1.11133-1.66211c3.30713,2.21094,6.72949,4.34083,10.17236,6.32911Zm195.21387-6.47363-1.11328-1.66211c3.29687-2.20606,6.56738-4.55371,9.72168-6.97852l1.21875,1.58594C751.04,463.96953,747.7334,466.34258,744.40137,468.57305ZM529.062,461.5916c-3.186-2.44531-6.335-5.0293-9.35937-7.67969l1.31836-1.5039c2.9917,2.62207,6.10693,5.17773,9.25879,7.59765Zm234.51709-7.75537-1.32031-1.50293c2.98633-2.62158,5.92578-5.37549,8.7373-8.186l1.41407,1.41407C769.56836,448.40264,766.59766,451.18633,763.5791,453.83623Zm-252.71435-8.19531c-2.84424-2.84034-5.63037-5.80957-8.28077-8.82618l1.502-1.32031c2.62256,2.98389,5.37842,5.92188,8.19189,8.73145Zm269.82275-8.91211-1.50391-1.31934c2.62305-2.98877,5.18164-6.10205,7.60352-9.25391l1.58594,1.21875C785.9248,430.56035,783.33887,433.70732,780.6875,436.72881ZM494.896,427.47c-2.44922-3.18311-4.8252-6.48779-7.06153-9.82227l1.66114-1.11426c2.21191,3.29932,4.5625,6.56836,6.98535,9.7168Zm300.53955-9.9336-1.66211-1.1123c2.21289-3.30664,4.34472-6.72754,6.33594-10.16895l1.73046,1.002C799.82715,410.73564,797.67285,414.19414,795.43555,417.53642ZM481.42969,407.388c-2.01514-3.47657-3.939-7.061-5.71778-10.65381l1.792-.8877c1.75976,3.55371,3.66308,7.09961,5.65625,10.53858Zm326.12988-10.81055-1.793-.88574c1.76074-3.564,3.42676-7.23633,4.95215-10.915l1.84766.76562C811.02441,389.26152,809.33984,392.97441,807.55957,396.57744ZM470.70605,385.73076c-1.541-3.706-2.978-7.50928-4.271-11.3042l1.89355-.64453c1.27832,3.75293,2.69971,7.51514,4.22412,11.18115Zm346.13184-11.53271-1.89453-.64161c1.27637-3.76562,2.44336-7.6206,3.46875-11.45849l1.93164.5166C819.30762,366.49394,818.12793,370.3914,816.83789,374.19805ZM462.9126,362.848c-1.042-3.87989-1.96778-7.84522-2.75244-11.78516l1.96191-.39062c.77539,3.89746,1.69141,7.81933,2.72217,11.65722Zm360.16748-12.023-1.96289-.3877c.77148-3.89746,1.42285-7.87207,1.93652-11.81347l1.98242.25879C824.51758,342.867,823.8584,346.88506,823.08008,350.825ZM458.189,339.12334c-.52294-3.97315-.92236-8.02442-1.188-12.042l1.99609-.13184c.26221,3.97461.65772,7.98242,1.17481,11.91309Zm368.02-12.28516-1.99609-.1289c.25488-3.95166.38477-7.977.38477-11.96485l-.001-.47461h2l.001.46826C826.59766,318.77471,826.4668,322.84355,826.209,326.83818Zm-367.6123-11.855h-2l.00049-.24512c0-3.94043.12549-7.92871.37353-11.84765l1.9961.126c-.24512,3.87745-.36963,7.82325-.36963,11.728Zm365.585-12.67773c-.26562-3.96729-.666-7.9751-1.18945-11.91162l1.98242-.26368c.5293,3.98.93359,8.03125,1.20312,12.04151ZM460.11035,291.0999l-1.9834-.25586c.51368-3.98437,1.167-8.00342,1.94043-11.94531l1.96289.38574C461.26465,283.18291,460.61865,287.15849,460.11035,291.0999Zm360.915-12.51416c-.78027-3.895-1.70117-7.81543-2.7373-11.65332l1.93164-.52148c1.04687,3.88037,1.97754,7.84423,2.7666,11.78222ZM464.72168,267.61992l-1.93262-.51367c1.03223-3.88574,2.20752-7.78467,3.49268-11.58838l1.89453.63965C466.90527,259.91973,465.74316,263.77617,464.72168,267.61992Zm350.06738-12.13574c-1.28418-3.75586-2.71-7.51563-4.23828-11.17529l1.8457-.77051c1.54493,3.70019,2.98633,7.50146,4.28516,11.29834ZM472.38477,244.93193l-1.84864-.76367c1.53516-3.71582,3.21485-7.43066,4.99268-11.0415l1.79394.88379C475.56445,237.58183,473.90283,241.25615,472.38477,244.93193Zm333.20019-11.5c-1.75976-3.54541-3.667-7.08838-5.66894-10.53174l1.72851-1.00488c2.02442,3.48047,3.95215,7.063,5.73145,10.647Zm-322.61767-9.99414-1.73243-.999c2.00733-3.48,4.15772-6.94141,6.39209-10.2876l1.66309,1.11035C487.08008,216.57207,484.95264,219.9959,482.96729,223.43779Zm310.60009-10.67871c-2.21875-3.2998-4.57324-6.56592-6.998-9.708l1.584-1.22168c2.4502,3.17627,4.83106,6.478,7.07422,9.81348Zm-297.30371-9.23779-1.5874-1.2168c2.44531-3.18994,5.02734-6.34082,7.67432-9.36426l1.50488,1.31739C501.23682,197.24883,498.68262,200.36553,496.26367,203.52129Zm282.68848-9.7041c-2.624-2.978-5.38281-5.91211-8.20313-8.7212l1.41211-1.417c2.84961,2.83936,5.63965,5.80567,8.291,8.81592Zm-266.92041-8.3086-1.416-1.41211c2.83789-2.84472,5.80567-5.63281,8.8208-8.28613l1.32129,1.501C517.7749,179.93681,514.83887,182.69463,512.03174,185.50859Zm249.96338-8.583c-2.9961-2.61962-6.11426-5.17187-9.26758-7.58593l1.21484-1.58789c3.18848,2.43994,6.34082,5.02,9.36914,7.668Zm-231.99854-7.22509-1.2207-1.584c3.18066-2.45117,6.48437-4.8291,9.81836-7.06787l1.11523,1.66016C536.41113,164.92363,533.14307,167.27617,529.99658,169.70049Zm212.98584-7.32813c-3.30859-2.206-6.73437-4.331-10.18066-6.3164l.998-1.7334c3.48438,2.00732,6.94727,4.15576,10.292,6.38574ZM549.85449,156.3665l-1.0039-1.72949c3.46923-2.01416,7.05224-3.94043,10.6499-5.7251l.88867,1.792C556.83057,152.469,553.28662,154.37431,549.85449,156.3665Zm172.3711-5.94824c-3.57227-1.75635-7.24707-3.415-10.92383-4.93115l.76172-1.84863c3.71777,1.53222,7.43359,3.20947,11.04492,4.98486ZM571.27,145.74541l-.76953-1.84619c3.70556-1.54346,7.50781-2.98291,11.30127-4.27783l.64648,1.89257C578.6958,142.79521,574.93506,144.219,571.27,145.74541Zm128.80225-4.46c-3.76563-1.269-7.62305-2.42871-11.46387-3.44678l.51172-1.93359c3.88379,1.02929,7.7832,2.20166,11.59082,3.48486Zm-106.17383-3.2627-.51953-1.93164c3.87744-1.04394,7.84179-1.97217,11.78222-2.75976l.39258,1.96093C601.65527,136.07158,597.73438,136.99,593.89844,138.02275Zm83.043-2.86767c-3.89453-.76221-7.87012-1.40528-11.81641-1.91211l.25391-1.9834c3.98925.51172,8.00879,1.16211,11.94726,1.93262Zm-59.57911-1.82032-.26171-1.98242c3.97265-.52539,8.02343-.92773,12.042-1.19531l.13281,1.99561C625.30078,132.41728,621.292,132.81523,617.3623,133.33476Zm35.84571-1.228c-3.83887-.24024-7.74512-.36231-11.61035-.36231l-.35645.00049v-2l.35254-.00049c3.91113,0,7.85938.12305,11.73926.36621Z" transform="translate(-160.40271 -42.42638)" fill="#e6e6e6"/><path d="M641.67188,443.74443l-.002-2c3.90723-.00244,7.84961-.18408,11.7168-.54l.18359,1.99121C649.64258,443.55742,645.63867,443.742,641.67188,443.74443Zm-11.89649-.53418c-3.94629-.3584-7.917-.90478-11.7998-1.62353l.36328-1.9668c3.82324.708,7.73144,1.24561,11.61816,1.59814Zm35.59277-1.65136-.36523-1.96583c3.83105-.71386,7.67187-1.61572,11.416-2.68066l.54687,1.92383C673.16211,439.91826,669.26074,440.83428,665.36816,441.55889ZM606.375,438.87724c-3.80566-1.07812-7.60693-2.34814-11.29883-3.77636l.72168-1.86524c3.63379,1.40576,7.376,2.65625,11.12207,3.71729Zm81.88379-3.831-.72266-1.86426c3.626-1.40722,7.2334-3.0039,10.72266-4.7456l.89258,1.78906C695.6084,431.99492,691.94336,433.617,688.25879,435.04619Zm-104.084-4.75586c-3.5415-1.76318-7.04394-3.71435-10.40869-5.79883l1.05274-1.70019c3.313,2.05175,6.76074,3.97265,10.24756,5.709Zm125.376-5.874-1.05469-1.69922c3.30469-2.05225,6.55762-4.28613,9.668-6.63965l1.207,1.59473C716.21191,420.06279,712.9082,422.33135,709.55078,424.41631ZM563.937,417.75762c-3.15478-2.38135-6.23926-4.94141-9.168-7.60791l1.34668-1.47852c2.8833,2.62549,5.92041,5.14551,9.02637,7.49072Zm164.59229-7.70411-1.34766-1.47753c2.876-2.62354,5.666-5.41456,8.292-8.2959l1.47852,1.34765C734.28418,404.55351,731.4502,407.38848,728.5293,410.05351Zm-182.19141-8.32128c-2.67187-2.92383-5.23633-6.0044-7.62305-9.1543l1.59473-1.208c2.34912,3.10156,4.874,6.13428,7.50488,9.01367Zm198.22852-9.26709-1.59571-1.20606c2.35157-3.11084,4.584-6.36523,6.63575-9.67334l1.69921,1.05371C749.22266,385.9998,746.95508,389.30547,744.56641,392.46514Zm-212.60157-9.70362c-2.08935-3.35986-4.04589-6.85742-5.81591-10.396l1.78906-.89454c1.74219,3.4834,3.66846,6.92676,5.7251,10.23487Zm225.14454-10.52783-1.78907-.89258c1.73731-3.48242,3.333-7.09228,4.74121-10.72851l1.86524.72265C760.49512,365.0291,758.875,368.69609,757.10938,372.23369ZM521.32275,361.47588c-1.4331-3.686-2.71-7.48535-3.79589-11.292l1.92285-.54883c1.06933,3.74756,2.32666,7.48779,3.7373,11.11621ZM765.71,350.03838l-1.92383-.5459c1.0625-3.74854,1.96192-7.58984,2.67285-11.41748l1.9668.36523C767.70313,342.32842,766.79,346.23076,765.71,350.03838ZM514.79639,338.58867c-.7251-3.88086-1.27832-7.8501-1.644-11.79687l1.99121-.18457c.36036,3.88574.90479,7.79345,1.61866,11.61425Zm255.26025-11.94775-1.99219-.18213c.35352-3.86719.53321-7.8086.53321-11.71436l-.001-.29785h2l.001.28809C770.59766,318.71123,770.416,322.71367,770.05664,326.64092Zm-255.45947-11.748h-2v-.14844c0-3.91455.17773-7.86719.52783-11.74756l1.99219.17969c-.34522,3.8208-.52,7.71289-.52,11.56787Zm253.43994-12.15869c-.36621-3.88867-.915-7.79541-1.63281-11.61231l1.96484-.36914c.72949,3.87647,1.28711,7.84473,1.6582,11.79395ZM516.7085,291.55889l-1.9668-.3628c.71728-3.88965,1.62646-7.79248,2.70215-11.60156l1.9248.54395C518.30957,283.8875,517.41455,287.72978,516.7085,291.55889Zm246.99658-11.84766c-1.07324-3.74512-2.335-7.4834-3.75-11.11133l1.86328-.72656c1.4375,3.68506,2.71973,7.48242,3.80859,11.28711ZM523.07959,269.014l-1.86621-.7207c1.4248-3.689,3.041-7.35791,4.80371-10.9043l1.791.89063C526.07275,261.77031,524.48193,265.38213,523.07959,269.014ZM755.18945,257.886c-1.74218-3.47607-3.67285-6.91748-5.73632-10.22754l1.69726-1.0581c2.09668,3.36279,4.05664,6.8584,5.82617,10.38916ZM533.51123,248.0291l-1.70117-1.05176c2.08105-3.36426,4.34473-6.67236,6.729-9.83349l1.59668,1.2041C537.78857,241.46025,535.55957,244.71758,533.51123,248.0291Zm209.28565-10.02783c-2.35645-3.10108-4.88477-6.13037-7.51661-9.00488l1.47461-1.35059c2.67285,2.91894,5.24121,5.99609,7.63379,9.14551Zm-195.1753-8.68408-1.47949-1.34571c2.6626-2.92724,5.49268-5.76513,8.41211-8.43554l1.34961,1.47558C553.02979,223.64092,550.24316,226.43535,547.62158,229.31719Zm179.34717-8.59864c-2.88477-2.62109-5.9248-5.13818-9.03418-7.48047l1.20313-1.59765c3.1582,2.37939,6.24609,4.93555,9.17675,7.59765Zm-162.05518-7.21777-1.209-1.59375c3.15283-2.3916,6.4541-4.66455,9.8125-6.75537l1.05664,1.69824C571.26758,208.908,568.01758,211.1458,564.91357,213.50078ZM708.249,206.61992c-3.3125-2.04736-6.76269-3.96387-10.25293-5.69727l.88868-1.791c3.54687,1.76025,7.05078,3.70752,10.415,5.78711Zm-123.44384-5.50146-.89551-1.78809c3.5376-1.77148,7.20019-3.39795,10.88623-4.8335l.72558,1.86328C591.89355,197.77373,588.28809,199.37431,584.80518,201.11846ZM687.25879,196.2c-3.63672-1.40137-7.37988-2.64746-11.12695-3.7041l.543-1.92481c3.80665,1.07324,7.60938,2.33936,11.30274,3.7627Zm-80.624-3.58252-.54883-1.92285c3.80469-1.0874,7.70508-2.00782,11.59277-2.73682l.36914,1.96582C614.2207,190.64092,610.38086,191.54717,606.63477,192.61748Zm58.07617-2.77539c-3.8252-.70313-7.73438-1.23633-11.61914-1.58447l.17773-1.99219c3.94629.354,7.917.89551,11.80274,1.60986Zm-35.04981-1.544-.18554-1.99121c3.92773-.36621,7.93066-.55517,11.89648-.562l.00391,2C637.46973,187.75176,633.5293,187.93779,629.66113,188.29814Z" transform="translate(-160.40271 -42.42638)" fill="#e6e6e6"/><path d="M659.10748,577.22093c-5.759-1.87957-12.9436-5.19177-17.46-8.82342l3.41492,8.38147c-116.33643,1.61084-220.83692-74.885-254.41351-186.6449C357.18829,278.76055,401.87683,157.561,499.34717,94.64488l1.79962,8.87073c1.7486-5.52527,5.89563-12.26251,9.64935-17.01739-5.94574,1.15716-13.83453,1.75317-19.54651.77356l7.05579,5.66442A265.8702,265.8702,0,0,0,394.75391,221.01933a264.06436,264.06436,0,0,0,92.86767,308.21192,265.92632,265.92632,0,0,0,153.97022,49.585c1.18121,0,2.36621-.02155,3.5506-.038l-2.73737,8.62567C646.618,583.42442,653.51624,579.55089,659.10748,577.22093Z" transform="translate(-160.40271 -42.42638)" fill="#3f3d56"/><path d="M894.40527,238.7874A264.08458,264.08458,0,0,0,651.83417,50.88805l3.18921-8.46167c-4.41846,3.75012-11.51264,7.25177-17.21973,9.28143,5.651,2.1828,12.64948,5.872,16.96661,9.7384l-2.967-8.55712A262.08877,262.08877,0,0,1,796.29614,526.25462l-2.31878-8.75592c-1.42133,5.61841-5.16578,12.58747-8.634,17.55445,5.86762-1.50415,13.70783-2.56214,19.46747-1.9195l-7.37182-5.23748A264.1246,264.1246,0,0,0,894.40527,238.7874Z" transform="translate(-160.40271 -42.42638)" fill="#3f3d56"/><path d="M955.7873,611.27431c-6.89.31-13.97.47-21.19.47-31.22,0-59.76-3.02-81.67-8.01,58.87-39.58,96.45-61.49,105.64-27.87C961.6073,586.97432,960.5373,598.87435,955.7873,611.27431Z" transform="translate(-160.40271 -42.42638)" opacity="0.1"/><path d="M380.729,87.74434H380.729c-27.71759,0-47.89631,18.82032-54.6988,45.69019l-8.43286,40.30981h6l13-33-2.73681,33h6.73681l5-17-1.05261,17h81.05261V132.61257A44.86825,44.86825,0,0,0,380.729,87.74434Z" transform="translate(-160.40271 -42.42638)" fill="#2f2e41"/><polygon points="168.195 346.379 187.195 438.202 291.195 439.733 265.195 343.318 168.195 346.379" fill="#3f3d56"/><polygon points="168.195 346.379 187.195 438.202 291.195 439.733 265.195 343.318 168.195 346.379" opacity="0.1"/><path d="M344.09729,317.24434s-41,57-39,80,28,398,28,398l61,3-18-270,15-73,37,340,75,2-67-441-13-39Z" transform="translate(-160.40271 -42.42638)" fill="#2f2e41"/><path d="M358.09729,143.24434s13,24-4,40-25,59-25,59l96-7-8-54s-21-13-16-36Z" transform="translate(-160.40271 -42.42638)" fill="#a0616a"/><path d="M358.09729,143.24434s13,24-4,40-25,59-25,59l96-7-8-54s-21-13-16-36Z" transform="translate(-160.40271 -42.42638)" opacity="0.1"/><path d="M342.09729,207.24434s6,18,32,16a89.2219,89.2219,0,0,0,44-16v117l-80-3v-71Z" transform="translate(-160.40271 -42.42638)" fill="#6c63ff"/><path d="M360.74042,173.70242l-7.64313,5.54192-46,22,16,83,11,18v22l-27,38a412.42933,412.42933,0,0,0-10,82c-1,46,11,34,17,33s19-4,19-4l-21-98,35-51,6-20s-2-47-10-66C343.09729,238.24434,358.38354,188.1605,360.74042,173.70242Z" transform="translate(-160.40271 -42.42638)" fill="#3f3d56"/><path d="M402.78513,164.24434l18.31216,18,36,11-17,94-10,20,2,20s37.473,40.19115,43,120C478,489.159,472,487.159,472,487.159l-73.90271-.91464-12-166,23-125Z" transform="translate(-160.40271 -42.42638)" fill="#3f3d56"/><path d="M478.09729,404.24434s10,43-10,48-13-48-13-48Z" transform="translate(-160.40271 -42.42638)" fill="#a0616a"/><path d="M301.70835,359.61287s38.5068,21.59227,28.72159,39.73751-44.22253-22.74572-44.22253-22.74572Z" transform="translate(-160.40271 -42.42638)" fill="#a0616a"/><path d="M442.09729,195.24434l15-2s9,12,10,21,17,161,17,161l16,29s-1,5-9,5h-8l-3,12s-6-23-29-11l-9-3,6-11s-6-53-6-78-2-52-2-52Z" transform="translate(-160.40271 -42.42638)" fill="#3f3d56"/><ellipse cx="209.25005" cy="754.32469" rx="14.21975" ry="5.3324" fill="#2f2e41"/><ellipse cx="305.23333" cy="754.32469" rx="14.21975" ry="5.3324" fill="#2f2e41"/><path d="M318.09729,200.24434l-11,1-25,97s-10,64-8,67,0,8-2,10,8,30,18,29,14-4,14-4-9-26,14-35l6-20-6-33,8-46Z" transform="translate(-160.40271 -42.42638)" fill="#3f3d56"/><ellipse cx="253.69459" cy="91.31797" rx="1.5" ry="5" fill="#a0616a"/><ellipse cx="185.69459" cy="91.31797" rx="1.5" ry="5" fill="#a0616a"/><circle cx="219.69459" cy="88.81797" r="33" fill="#a0616a"/><polygon points="205.195 71.318 204.352 79.318 227.195 79.318 230.195 73.318 229.563 79.318 257.195 79.318 238.195 49.318 196.195 50.318 186.195 79.318 201.195 79.318 205.195 71.318" fill="#2f2e41"/><circle cx="774.19459" cy="431.31797" r="105" fill="#3f3d56"/><circle cx="781.19459" cy="257.31797" r="78" fill="#3f3d56"/><circle cx="781.19459" cy="117.31797" r="67" fill="#3f3d56"/><circle cx="782.19459" cy="34.31797" r="26" fill="#6c63ff"/><path d="M225.01343,749.063c6.70634,24.79066,29.67707,40.14415,29.67707,40.14415s12.09761-24.84013,5.39127-49.6308-29.67708-40.14415-29.67708-40.14415S218.30709,724.27234,225.01343,749.063Z" transform="translate(-160.40271 -42.42638)" fill="#3f3d56"/><path d="M234.86793,743.73523c18.40229,17.91389,20.65,45.45171,20.65,45.45171s-27.58831-1.50633-45.99061-19.42023-20.65-45.45171-20.65-45.45171S216.46563,725.82133,234.86793,743.73523Z" transform="translate(-160.40271 -42.42638)" fill="#6c63ff"/><circle cx="481.19459" cy="272.31797" r="41" fill="#f2f2f2"/></svg>
