<svg data-name="Layer 1" xmlns="http://www.w3.org/2000/svg" width="877" height="732.809" viewBox="0 0 877 732.809"><path fill="#f2f2f2" d="M229.065 216.946l84.87 49-49 84.87-84.87-49z"/><circle cx="749.591" cy="150.798" r="72" fill="#6c63ff"/><path d="M705.567 50.957c8.974 22.005 31.813 33.496 31.813 33.496s8.288-24.186-.686-46.19-31.813-33.496-31.813-33.496-8.288 24.186.686 46.19z" fill="#3f3d56"/><path d="M714.012 44.945c18.934 14.361 24.126 39.395 24.126 39.395s-25.507 1.75-44.441-12.61-24.126-39.396-24.126-39.396 25.506-1.75 44.44 12.611z" fill="#6c63ff"/><path d="M740.982 38.38c-8.794 22.077-.307 46.194-.307 46.194s22.743-11.678 31.537-33.755.307-46.194.307-46.194-22.744 11.677-31.537 33.755z" fill="#3f3d56"/><path d="M751.235 39.904c3.683 23.477-9.937 45.114-9.937 45.114s-19.59-16.427-23.273-39.904S727.96 0 727.96 0s19.591 16.427 23.274 39.904z" fill="#6c63ff"/><circle cx="745.631" cy="143.226" r="37" fill="#f2f2f2"/><circle cx="730.089" cy="132.908" r="12" fill="#3f3d56"/><path d="M855 594.882a22 22 0 1122-22 22.025 22.025 0 01-22 22zm0-42a20 20 0 1020 20 20.022 20.022 0 00-20-20zm-588-185a22 22 0 1122-22 22.025 22.025 0 01-22 22zm0-42a20 20 0 1020 20 20.022 20.022 0 00-20-20z" fill="#3f3d56"/><path d="M795.538 161.519l-116.977 130.56a57.987 57.987 0 11-77.197 86.16L438.42 560.102a267.098 267.098 0 00164.303 56.203C750.89 616.305 871 496.193 871 348.029a267.37 267.37 0 00-75.462-186.51z" fill="#f2f2f2"/><circle cx="645" cy="340.882" r="35" fill="#f2f2f2"/><circle cx="461.966" cy="71.97" r="33.781" fill="#2f2e41"/><path d="M398.442 310.731l7.837 152.815s-1.307 109.713 6.53 111.02 22.204 10.448 26.122 3.918 23.51-207.672 23.51-207.672 5.225 208.978 20.898 210.284 33.959-6.53 36.571-5.224 1.306-261.222 1.306-261.222z" fill="#2f2e41"/><path d="M421.952 573.26s-9.143 0-11.755 3.918-11.755 23.51-11.755 23.51-16.98 15.591 1.306 16.897 27.428-2.53 27.428-5.142 0-9.143 3.919-10.45 7.836-7.836 7.836-10.448-3.918-19.592-16.98-18.286zm70.53 1.306s-6.53 26.122 0 27.428 10.449 3.918 11.755 7.836 14.367 8.45 24.816 7.143 15.673-8.449 11.755-12.367-23.51-26.122-24.816-30.04-23.51 0-23.51 0z" fill="#2f2e41"/><path d="M446.768 96.53s-2.612 19.591-7.837 22.203 2.613 16.98 2.613 16.98l23.51 3.918 20.897-16.98s-3.918-24.815-3.918-26.122-35.265 0-35.265 0z" fill="#9f616a"/><path d="M446.768 96.53s-2.612 19.591-7.837 22.203 2.613 16.98 2.613 16.98l23.51 3.918 20.897-16.98s-3.918-24.815-3.918-26.122-35.265 0-35.265 0z" opacity=".1"/><circle cx="461.135" cy="82.162" r="31.347" fill="#9f616a"/><path d="M460.482 135.06s-13.061-22.204-19.592-20.898-26.775 4.571-29.387 3.265-19.592 58.775-19.592 58.775-18.285 118.856-6.53 133.223 52.244 6.53 57.469 20.898 87.509-7.837 87.509-15.673 1.306-127.999 2.612-137.142-11.755-57.469-11.755-57.469-30.693-8.49-35.918-5.877-7.836 10.449-24.816 20.898z" fill="#575a88"/><path d="M414.115 121.345l-2.612-3.918s-27.428 3.918-35.265 2.612-31.347 1.306-31.347 1.306 5.225-14.367 10.45-15.673 11.754-5.224 11.754-5.224-13.06-19.592 0-26.122c0 0-60.08 23.51-64 45.713s91.429 56.163 91.429 56.163zm96.652 1.307l10.45-2.613 52.244 5.225-16.98-18.286s10.45-13.06 3.919-19.591c0 0 69.223 26.122 61.387 43.101s-90.122 47.02-94.04 48.326-16.98-56.162-16.98-56.162z" fill="#575a88"/><path d="M374.21 77.843c3.234.642 5.997 2.662 8.643 4.628a83.955 83.955 0 017.368 5.918c11.878 11.105 16.245 27.86 20.023 43.676-2.69 2.266-7.081.382-8.886-2.637s-1.93-6.705-2.64-10.15-2.443-7.148-5.796-8.212c.705 2.187-.996 4.561-3.123 5.43s-4.523.628-6.806.374a9.405 9.405 0 01-3.088-.703c-1.773-.857-2.808-2.701-3.773-4.417a135.836 135.836 0 00-8.283-12.96 9.622 9.622 0 00-2.61-2.734c-4.184-2.554-8.677-5.894-6.594-11.957 1.72-5.005 11.001-7.163 15.566-6.256zm173.657 7.773c-4.7.235-8.754 3.294-12.196 6.504a85.495 85.495 0 00-26.25 51.218c-.167 1.313-.22 2.86.786 3.721 1.131.969 2.996.396 3.925-.768a9.551 9.551 0 001.488-4.164 46.529 46.529 0 014.624-12.717c1.105-2.047 2.64-4.202 4.936-4.564 3.421-.54 5.98 3.084 9.247 4.23 3.857 1.355 8.178-1.07 10.522-4.418s3.261-7.453 4.553-11.33c1.291-3.878 3.207-7.855 6.731-9.923 3.754-2.203 12.395-3.733 8.73-9.914-2.662-4.491-12.178-8.12-17.096-7.875z" fill="#9f616a"/><path d="M427.184 64.817s-8.33-21.658 3.749-28.738l3.332 9.58s30.404-18.326 38.317-14.162l-7.497 9.996s35.402 0 37.901 13.745l-12.495.416s13.328 8.746 13.744 22.907l-26.655 1.666 12.911 7.497s-48.313 6.664-59.975-12.495z" fill="#2f2e41"/><path d="M346.85 89.346l19.592-15.674s-6.53 19.592 0 26.123l-24.816 5.224zm228.57 9.143l-16.98-13.062s2.613 16.98-2.612 20.898 14.367 5.225 14.367 5.225z" fill="#575a88"/><circle cx="179.634" cy="580.425" r="72" fill="#6c63ff"/><path d="M111.307 495.35c14.355 18.939 39.388 24.138 39.388 24.138s1.757-25.506-12.598-44.444-39.388-24.138-39.388-24.138-1.758 25.506 12.598 44.445z" fill="#3f3d56"/><path d="M117.911 487.36c22.002 8.981 33.486 31.824 33.486 31.824s-24.188 8.281-46.19-.7-33.486-31.822-33.486-31.822 24.188-8.282 46.19.699z" fill="#6c63ff"/><path d="M142.269 474.049c-2.79 23.6 11.64 44.705 11.64 44.705s18.954-17.158 21.744-40.758-11.64-44.705-11.64-44.705-18.954 17.158-21.744 40.758z" fill="#3f3d56"/><path d="M152.568 472.872c9.624 21.728 2.058 46.15 2.058 46.15s-23.17-10.807-32.794-32.535-2.059-46.15-2.059-46.15 23.17 10.807 32.795 32.535z" fill="#6c63ff"/><circle cx="151.853" cy="584.134" r="37" fill="#f2f2f2"/><circle cx="137.817" cy="595.875" r="12" fill="#3f3d56"/><circle cx="463" cy="546.882" r="72" fill="#6c63ff"/><path d="M431.564 442.393c6.205 22.94 27.46 37.147 27.46 37.147s11.195-22.986 4.99-45.926-27.462-37.146-27.462-37.146-11.194 22.985-4.988 45.925z" fill="#3f3d56"/><path d="M440.682 437.463c17.029 16.576 19.109 42.058 19.109 42.058s-25.529-1.394-42.557-17.97-19.108-42.059-19.108-42.059 25.528 1.394 42.556 17.97z" fill="#6c63ff"/><path d="M468.254 434.257c-11.437 20.831-5.974 45.807-5.974 45.807s24.005-8.798 35.442-29.629 5.974-45.807 5.974-45.807-24.005 8.798-35.442 29.629z" fill="#3f3d56"/><path d="M478.243 437.028c.774 23.752-15.399 43.554-15.399 43.554s-17.426-18.708-18.2-42.46 15.4-43.553 15.4-43.553 17.426 18.708 18.2 42.46z" fill="#6c63ff"/><circle cx="460" cy="538.882" r="37" fill="#f2f2f2"/><circle cx="460" cy="517.882" r="12" fill="#3f3d56"/><path fill="#2f2e41" d="M287 616.882h375v2H287z"/><ellipse cx="813.5" cy="184.882" rx="20.5" ry="16" fill="#6c63ff"/><path d="M247.139 522.914l32.788-26.258m-30.69 46.493q14.864-12.012 30.774-22.644m-8.904 20.513a113.665 113.665 0 0031.25-21.966" fill="#3f3d56"/><circle cx="189" cy="630.882" r="18" fill="#3f3d56"/><ellipse cx="99" cy="720.882" rx="99" ry="11.928" fill="#f2f2f2"/><path d="M632 617.882a22 22 0 1122-22 22.025 22.025 0 01-22 22zm0-42a20 20 0 1020 20 20.022 20.022 0 00-20-20z" fill="#3f3d56"/></svg>